<svg xmlns="http://www.w3.org/2000/svg" width="40" height="40" viewBox="0 0 40 40">
  <g id="iconfinder_77-behance_104426" transform="translate(-3.723 -5.101)">
    <path id="Path_1" data-name="Path 1" d="M38.031,27.257a3.674,3.674,0,0,0-3.615,3.168h6.748A3.057,3.057,0,0,0,38.031,27.257Z" transform="translate(-6.679 -4.447)" fill="#2f303a"/>
    <path id="Path_2" data-name="Path 2" d="M22.721,30.425H16.739v4.587h5.3c.09,0,.225,0,.383,0,.852-.017,2.467-.224,2.467-2.23A2.165,2.165,0,0,0,22.721,30.425Z" transform="translate(-2.929 -4.447)" fill="#2f303a"/>
    <path id="Path_3" data-name="Path 3" d="M23.724,5.1a20,20,0,1,0,20,20A20,20,0,0,0,23.724,5.1Zm4.21,12.289h6.885v2.055H27.934Zm-3.48,10.78c0,5.093-5.3,4.925-5.3,4.925H10.469V16.407h8.684c2.638,0,4.721,1.457,4.721,4.443a2.9,2.9,0,0,1-2.546,3.176C24.685,24.026,24.453,28.17,24.453,28.17Zm12.88-.273h-9.4c0,3.1,3.688,2.9,3.688,2.9,2.773,0,2.676-1.8,2.676-1.8h2.938c0,4.765-5.712,4.439-5.712,4.439a5.92,5.92,0,0,1-6.411-6.38s-.006-6.411,6.411-6.411C38.279,20.653,37.333,27.9,37.333,27.9Z" transform="translate(0)" fill="#2f303a"/>
    <path id="Path_4" data-name="Path 4" d="M24.174,24.433c0-1.76-1.453-1.76-1.453-1.76H16.739v3.775H22.35C23.318,26.448,24.174,26.192,24.174,24.433Z" transform="translate(-2.879 -3.638)" fill="#2f303a"/>
  </g>
</svg>
